<?xml version="1.0" standalone="no"?>
<!DOCTYPE svg PUBLIC "-//W3C//DTD SVG 20010904//EN"
 "http://www.w3.org/TR/2001/REC-SVG-20010904/DTD/svg10.dtd">
<svg version="1.0" xmlns="http://www.w3.org/2000/svg"
 width="373.000000pt" height="373.000000pt" viewBox="0 0 373.000000 373.000000"
 preserveAspectRatio="xMidYMid meet">
<metadata>
Created by potrace 1.11, written by Peter Selinger 2001-2013
</metadata>
<g transform="translate(0.000000,373.000000) scale(0.100000,-0.100000)"
fill="#000000" stroke="none">
<path d="M1735 3516 c-22 -7 -58 -22 -80 -33 -23 -12 -81 -31 -130 -42 -50
-12 -126 -33 -170 -48 -54 -18 -103 -27 -150 -27 -93 -1 -163 -35 -321 -154
-300 -226 -452 -423 -535 -695 -17 -56 -35 -110 -40 -119 -5 -10 -9 -27 -9
-38 0 -12 -4 -18 -10 -15 -13 8 -13 -18 0 -31 6 -6 6 -43 -1 -104 -16 -134 -5
-392 21 -505 90 -400 342 -795 655 -1028 86 -64 216 -131 278 -142 31 -6 37
-11 32 -26 -11 -34 23 -85 75 -113 92 -50 174 -60 505 -60 323 -1 399 7 492
49 58 26 93 71 93 120 1 28 7 33 87 70 146 68 258 147 391 278 70 69 120 127
117 134 -2 8 11 37 29 66 18 28 43 72 56 97 13 25 40 65 61 89 22 24 39 49 39
55 -1 6 -12 -2 -25 -19 -16 -19 3 31 52 137 43 92 79 165 81 163 8 -8 -41
-143 -74 -203 -37 -68 -40 -77 -22 -66 23 14 -97 -182 -165 -269 -16 -21 -27
-40 -24 -43 8 -9 110 133 166 231 208 365 248 834 106 1233 -19 53 -35 107
-35 120 0 12 -6 22 -12 22 -7 0 -30 34 -52 75 -93 183 -276 389 -456 517 -166
118 -386 214 -576 253 -43 9 -127 31 -186 50 -116 38 -191 44 -263 21z m264
-31 c141 -47 308 -130 404 -200 l78 -57 -48 -33 c-61 -41 -132 -117 -179 -192
-20 -32 -38 -60 -40 -62 -2 -2 -37 30 -77 72 -171 174 -355 242 -516 191 l-50
-17 -38 34 c-21 19 -51 43 -66 55 l-29 20 74 70 c166 154 289 184 487 119z
m-506 -118 l-65 -63 -46 23 c-25 13 -52 23 -61 23 -32 0 7 19 89 43 87 26 116
34 136 36 7 0 -17 -27 -53 -62z m843 18 c76 -25 185 -70 243 -101 112 -59 152
-86 87 -59 -27 11 -61 16 -107 14 -62 -3 -70 -1 -106 27 -64 51 -127 91 -199
128 -38 20 -66 35 -62 36 5 0 69 -20 144 -45z m-955 -77 c41 -20 98 -58 127
-83 l52 -47 -62 -40 c-257 -166 -464 -366 -563 -543 -40 -70 -34 -67 -157 -80
-70 -8 -218 -46 -301 -79 -34 -13 -81 -27 -105 -31 l-43 -7 7 29 c74 309 242
544 555 775 193 142 208 149 330 145 76 -2 93 -6 160 -39z m1334 -122 c83 -41
199 -137 274 -227 57 -68 156 -215 209 -311 l32 -58 -23 0 c-13 0 -57 9 -98
20 -41 11 -105 23 -144 26 -67 7 -72 9 -135 64 -82 73 -176 133 -249 161 -93
35 -218 36 -303 4 -8 -3 -23 7 -36 25 l-23 31 37 60 c72 118 183 219 267 240
52 13 118 1 192 -35z m-792 -30 c83 -42 191 -134 279 -240 l49 -58 -122 -74
c-67 -41 -137 -86 -156 -100 l-33 -25 -86 21 c-74 19 -94 20 -147 11 -76 -13
-153 -50 -221 -106 l-52 -42 -257 -5 -256 -6 24 48 c83 163 275 353 540 530
118 80 152 91 265 87 87 -2 101 -6 173 -41z m628 -306 c83 -26 162 -71 245
-140 l66 -55 -109 -7 c-243 -16 -404 -31 -517 -49 l-119 -19 -78 32 c-43 18
-79 36 -79 40 0 16 263 173 334 199 69 25 176 25 257 -1z m-671 -195 c44 -14
110 -39 147 -54 l67 -29 -82 -26 c-45 -14 -130 -31 -189 -37 -93 -11 -122 -10
-206 4 -54 10 -112 17 -128 17 -41 0 -36 13 19 53 134 98 230 116 372 72z
m1077 -115 c65 -80 183 -278 183 -305 -1 -11 -11 -49 -23 -85 -19 -55 -27 -68
-57 -82 -41 -20 -148 -34 -316 -44 l-122 -6 -12 38 c-54 166 -185 331 -353
442 -37 25 -66 46 -65 47 7 6 222 39 328 50 63 7 176 12 250 12 l134 -2 53
-65z m94 49 c41 -10 87 -57 100 -102 10 -37 12 -140 3 -186 l-7 -32 -34 63
c-45 80 -105 170 -156 231 l-40 49 49 -7 c27 -4 65 -11 85 -16z m-839 -81
c173 -104 288 -233 358 -397 17 -38 30 -75 30 -81 0 -8 -69 -10 -239 -8 l-239
3 -27 25 c-35 33 -120 210 -134 279 -22 107 4 149 116 187 38 13 71 24 75 24
4 0 31 -14 60 -32z m1087 -82 c44 -113 71 -232 73 -312 1 -81 -19 -396 -30
-469 l-8 -50 -7 77 c-13 150 -57 319 -124 476 -35 83 -35 84 -24 158 6 41 11
97 11 123 0 47 1 49 38 64 20 8 38 14 39 13 1 -1 15 -37 32 -80z m-1961 66
l43 -7 -29 -35 c-83 -100 -163 -248 -227 -415 l-41 -110 -55 -7 c-30 -3 -96
-10 -148 -14 l-94 -7 7 113 c8 136 35 279 73 391 28 84 28 84 68 90 55 9 351
9 403 1z m-462 -14 c-52 -128 -91 -307 -104 -483 l-7 -100 -122 0 c-119 0
-123 1 -149 26 -38 39 -65 143 -71 279 -4 106 -3 118 19 160 19 37 31 48 73
63 57 21 162 44 256 56 97 13 111 13 105 -1z m648 -10 c22 -5 52 -23 68 -40
23 -25 28 -39 28 -80 0 -96 -96 -324 -151 -357 -29 -18 -345 -68 -356 -57 -10
10 54 169 115 289 30 60 81 144 113 188 l59 79 43 -6 c23 -3 60 -10 81 -16z
m319 -39 c40 -21 59 -50 79 -122 26 -92 77 -206 115 -261 43 -60 74 -66 351
-66 l229 0 12 -60 c18 -92 31 -268 31 -435 l0 -150 -33 -18 c-43 -23 -67 -65
-67 -115 0 -46 27 -87 65 -96 20 -5 25 -12 25 -39 0 -17 -3 -43 -7 -56 -5 -21
-10 -23 -49 -18 -59 6 -102 40 -132 105 -36 80 -40 160 -11 279 32 138 31 234
-5 306 -48 98 -136 157 -249 165 -89 6 -143 -15 -197 -75 -22 -25 -40 -52 -40
-59 0 -8 -4 -14 -10 -14 -5 0 -10 6 -10 13 0 8 -17 30 -37 50 -67 68 -204 94
-326 62 -178 -46 -284 -162 -294 -320 -4 -62 0 -85 37 -200 50 -156 49 -200
-5 -312 -32 -65 -82 -123 -106 -123 -5 0 -20 23 -35 51 -18 37 -22 55 -15 62
6 6 11 32 11 58 0 51 -31 102 -69 114 -56 17 -74 419 -29 629 16 77 27 110 38
111 8 1 74 10 145 19 72 10 149 22 172 28 90 22 175 162 243 396 18 64 25 75
53 87 39 17 91 19 120 4z m-1477 -133 c19 -6 22 -16 27 -104 9 -140 49 -290
84 -320 27 -22 34 -23 161 -20 l132 4 0 -66 c0 -165 37 -431 84 -604 23 -88
24 -89 5 -130 -62 -136 21 -293 181 -343 34 -11 76 -35 110 -64 30 -26 78 -61
105 -79 l50 -32 -45 6 c-59 8 -209 82 -290 144 -259 196 -481 507 -594 830
-56 163 -80 301 -80 482 -1 85 3 190 7 233 7 65 11 77 25 73 10 -2 26 -7 38
-10z m2889 -342 c33 -113 55 -240 55 -314 0 -61 -27 -124 -181 -434 -185 -369
-355 -522 -767 -691 -128 -52 -213 -69 -296 -59 l-61 7 87 17 c113 23 176 45
263 88 91 45 200 153 241 238 23 48 39 66 77 90 59 35 118 97 147 155 29 56
26 173 -6 216 -28 38 -82 73 -110 73 -22 0 -24 4 -24 48 -2 164 -22 486 -33
534 l-14 57 76 5 c157 13 287 27 325 37 52 14 80 44 107 118 l22 63 33 -79
c18 -44 45 -120 59 -169z m132 -16 c-2 -13 -4 -3 -4 22 0 25 2 35 4 23 2 -13
2 -33 0 -45z m-2328 -130 c-41 -190 -45 -417 -9 -573 15 -63 14 -65 -31 -65
-43 0 -72 -11 -105 -42 l-22 -19 -22 83 c-46 170 -80 420 -80 590 l0 76 78 7
c42 4 102 11 132 15 30 4 60 8 66 9 7 1 5 -27 -7 -81z m2318 -5 c-2 -16 -4 -3
-4 27 0 30 2 43 4 28 2 -16 2 -40 0 -55z m-1362 -719 c103 -184 287 -283 470
-254 35 6 76 15 90 20 14 5 25 7 25 4 0 -4 -14 -33 -32 -65 -42 -80 -139 -169
-232 -214 -171 -82 -487 -128 -648 -94 -103 22 -224 88 -316 173 l-43 39 69
22 c199 63 364 229 478 483 24 53 44 104 45 112 0 8 13 -24 28 -71 15 -47 45
-117 66 -155z m645 126 c0 -54 -3 -70 -14 -70 -18 0 -46 38 -46 61 0 15 45 79
56 79 2 0 4 -31 4 -70z m71 60 c28 -16 49 -63 49 -115 0 -67 -33 -120 -94
-152 l-28 -15 7 54 c6 42 13 58 36 76 23 18 29 32 29 61 0 34 -14 61 -32 61
-4 0 -5 -13 -2 -29 3 -16 1 -37 -5 -48 -8 -14 -10 -4 -11 50 0 71 7 80 51 57z
m-1631 -211 c18 -51 20 -63 9 -70 -30 -20 -60 -21 -85 -4 -23 15 -26 22 -21
56 5 35 4 38 -14 29 -48 -26 -24 -110 39 -137 36 -15 41 -15 102 11 12 5 22
-6 38 -39 12 -25 22 -47 22 -49 0 -15 -106 -36 -142 -29 -31 6 -61 51 -108
160 -31 75 -29 92 18 117 15 9 48 15 73 16 l46 0 23 -61z m30 -6 c0 -22 -8
-14 -19 20 -10 29 -9 30 4 13 8 -11 15 -26 15 -33z m-144 -210 c-2 -2 -20 10
-39 26 -37 33 -61 99 -51 138 5 18 15 4 50 -69 25 -50 43 -93 40 -95z m365
-189 c43 -46 143 -117 200 -144 l44 -21 -64 6 c-134 13 -287 82 -365 164 l-30
31 90 0 90 0 35 -36z m1066 -156 c-3 -8 -6 -5 -6 6 -1 11 2 17 5 13 3 -3 4
-12 1 -19z m-1078 -66 c14 -11 14 -11 -2 -6 -10 4 -22 15 -27 25 -14 25 -12
38 2 14 6 -11 19 -26 27 -33z m198 32 c-3 -3 -12 -4 -19 -1 -8 3 -5 6 6 6 11
1 17 -2 13 -5z m50 -10 c-3 -3 -12 -4 -19 -1 -8 3 -5 6 6 6 11 1 17 -2 13 -5z
m60 -10 c-3 -3 -12 -4 -19 -1 -8 3 -5 6 6 6 11 1 17 -2 13 -5z m753 2 c0 -2
-8 -10 -17 -17 -16 -13 -17 -12 -4 4 13 16 21 21 21 13z m-662 -13 c-10 -2
-26 -2 -35 0 -10 3 -2 5 17 5 19 0 27 -2 18 -5z m300 0 c-10 -2 -28 -2 -40 0
-13 2 -5 4 17 4 22 1 32 -1 23 -4z m-571 -49 c-3 -3 -12 -4 -19 -1 -8 3 -5 6
6 6 11 1 17 -2 13 -5z m810 0 c-3 -3 -12 -4 -19 -1 -8 3 -5 6 6 6 11 1 17 -2
13 -5z m-760 -10 c-3 -3 -12 -4 -19 -1 -8 3 -5 6 6 6 11 1 17 -2 13 -5z m710
0 c-3 -3 -12 -4 -19 -1 -8 3 -5 6 6 6 11 1 17 -2 13 -5z m-624 -11 c-7 -2 -21
-2 -30 0 -10 3 -4 5 12 5 17 0 24 -2 18 -5z m550 0 c-7 -2 -21 -2 -30 0 -10 3
-4 5 12 5 17 0 24 -2 18 -5z m-205 -10 c-49 -2 -127 -2 -175 0 -49 1 -9 3 87
3 96 0 136 -2 88 -3z"/>
</g>
</svg>
