<?xml version="1.0" encoding="UTF-8" ?>
<!DOCTYPE svg PUBLIC "-//W3C//DTD SVG 1.1//EN" "http://www.w3.org/Graphics/SVG/1.1/DTD/svg11.dtd">
<svg width="200pt" height="200pt" viewBox="0 0 200 200" version="1.1" xmlns="http://www.w3.org/2000/svg">
<path fill="#1e256e" d=" M 0.00 0.00 L 200.00 0.00 L 200.00 200.00 L 0.00 200.00 L 0.00 0.00 Z" />
<path fill="#397480" d=" M 29.76 8.70 C 36.34 3.91 45.42 2.92 52.89 6.14 C 61.88 9.78 68.04 19.30 67.60 29.00 C 67.59 33.77 65.62 38.20 63.43 42.33 C 60.04 46.29 55.74 49.23 51.07 51.46 C 45.60 52.41 39.77 52.77 34.56 50.48 C 26.90 47.41 21.13 40.14 19.92 31.97 C 18.45 23.17 22.42 13.75 29.76 8.70 Z" />
<path fill="#397480" d=" M 140.41 7.40 C 148.12 4.64 157.19 6.33 163.40 11.66 C 168.78 16.12 172.01 22.99 172.10 29.97 C 172.32 38.25 167.99 46.52 160.98 50.96 C 155.44 54.58 148.34 55.69 141.96 53.92 C 138.14 53.01 135.04 50.47 131.58 48.76 C 131.55 48.74 131.49 48.70 131.47 48.69 C 128.22 43.97 124.78 39.04 124.37 33.12 C 122.97 22.21 129.93 10.85 140.41 7.40 Z" />
<path fill="#000000" d=" M 63.43 42.33 C 74.00 36.75 86.07 33.77 98.04 35.01 C 108.71 36.00 119.12 39.87 127.71 46.29 C 128.87 47.22 130.11 48.05 131.47 48.69 C 131.49 48.70 131.55 48.74 131.58 48.76 C 133.21 51.00 135.34 52.80 137.14 54.90 C 146.99 66.09 152.40 81.11 151.79 96.03 C 151.27 111.46 144.43 126.57 133.10 137.07 C 121.88 147.60 106.44 153.52 91.04 153.01 C 76.67 152.65 62.52 146.82 52.11 136.91 C 41.36 126.84 34.64 112.61 33.69 97.91 C 32.75 84.59 36.53 71.01 44.18 60.08 C 46.22 57.00 48.87 54.41 51.07 51.46 C 55.74 49.23 60.04 46.29 63.43 42.33 Z" />
<path fill="#ff6600" d=" M 107.29 54.37 C 112.08 52.34 117.72 54.12 121.19 57.79 C 126.82 63.61 128.53 72.36 127.25 80.17 C 126.11 86.94 122.22 93.90 115.49 96.37 C 110.07 98.23 104.14 95.55 100.82 91.16 C 94.69 83.14 94.13 71.51 98.67 62.60 C 100.56 59.04 103.48 55.87 107.29 54.37 Z" />
<path fill="#ff6600" d=" M 59.55 58.52 C 63.84 57.62 67.71 60.81 69.69 64.33 C 73.55 71.25 73.85 79.91 71.14 87.29 C 69.57 91.30 66.60 95.44 62.07 96.16 C 57.96 96.74 54.50 93.71 52.57 90.40 C 48.71 83.62 48.35 75.11 50.87 67.80 C 52.34 63.75 55.15 59.64 59.55 58.52 Z" />
<path fill="#1e256e" d=" M 92.32 104.01 C 95.31 106.95 98.59 109.65 101.20 112.93 C 97.77 116.47 94.26 119.93 90.91 123.54 C 94.51 126.95 98.10 130.38 101.59 133.92 C 98.59 136.86 95.95 140.23 92.61 142.78 C 89.22 139.27 85.69 135.90 82.17 132.52 C 78.61 135.98 75.26 139.64 71.74 143.14 C 68.71 140.40 65.90 137.43 62.89 134.67 C 65.82 130.63 69.81 127.44 73.13 123.71 C 69.63 120.16 65.92 116.83 62.49 113.21 C 65.38 110.22 68.25 107.22 71.22 104.30 C 74.81 107.70 78.28 111.24 81.88 114.62 C 85.48 111.20 88.81 107.53 92.32 104.01 Z" />
</svg>
